# Wavefront OBJ file automatically generated by Tiled2Unity

# Vertices (Count = 298)
v -10 -6 0
v -11 -6 0
v -11 -5 0
v -10 -5 0
v -12 -6 0
v -12 -5 0
v -13 -6 0
v -13 -5 0
v -14 -6 0
v -14 -5 0
v -15 -6 0
v -15 -5 0
v -16 -6 0
v -16 -5 0
v -17 -6 0
v -17 -5 0
v -18 -6 0
v -18 -5 0
v -19 -6 0
v -19 -5 0
v -20 -6 0
v -20 -5 0
v -21 -6 0
v -21 -5 0
v -22 -6 0
v -22 -5 0
v -23 -6 0
v -23 -5 0
v -24 -6 0
v -24 -5 0
v -25 -6 0
v -25 -5 0
v -26 -6 0
v -26 -5 0
v -27 -6 0
v -27 -5 0
v -28 -6 0
v -28 -5 0
v -29 -6 0
v -29 -5 0
v -10 -7 0
v -11 -7 0
v -12 -7 0
v -13 -7 0
v -14 -7 0
v -15 -7 0
v -16 -7 0
v -17 -7 0
v -18 -7 0
v -19 -7 0
v -20 -7 0
v -21 -7 0
v -22 -7 0
v -28 -7 0
v -29 -7 0
v -10 -8 0
v -11 -8 0
v -12 -8 0
v -13 -8 0
v -14 -8 0
v -15 -8 0
v -16 -8 0
v -17 -8 0
v -18 -8 0
v -19 -8 0
v -20 -8 0
v -21 -8 0
v -22 -8 0
v -28 -8 0
v -29 -8 0
v -32 -8 0
v -33 -8 0
v -33 -7 0
v -32 -7 0
v -34 -8 0
v -34 -7 0
v -35 -8 0
v -35 -7 0
v -36 -8 0
v -36 -7 0
v -37 -8 0
v -37 -7 0
v -7 -9 0
v -8 -9 0
v -8 -8 0
v -7 -8 0
v -9 -9 0
v -9 -8 0
v -10 -9 0
v -11 -9 0
v -12 -9 0
v -13 -9 0
v -14 -9 0
v -15 -9 0
v -16 -9 0
v -17 -9 0
v -18 -9 0
v -19 -9 0
v -20 -9 0
v -21 -9 0
v -22 -9 0
v -29 -9 0
v -30 -9 0
v -30 -8 0
v -31 -9 0
v -31 -8 0
v -32 -9 0
v -33 -9 0
v -34 -9 0
v -35 -9 0
v -36 -9 0
v -37 -9 0
v -6 -10 0
v -7 -10 0
v -6 -9 0
v -8 -10 0
v -9 -10 0
v -10 -10 0
v -11 -10 0
v -12 -10 0
v -13 -10 0
v -14 -10 0
v -15 -10 0
v -16 -10 0
v -17 -10 0
v -18 -10 0
v -19 -10 0
v -20 -10 0
v -21 -10 0
v -22 -10 0
v -29 -10 0
v -30 -10 0
v -31 -10 0
v -32 -10 0
v -33 -10 0
v -35 -10 0
v -36 -10 0
v -37 -10 0
v -6 -11 0
v -7 -11 0
v -8 -11 0
v -9 -11 0
v -10 -11 0
v -11 -11 0
v -12 -11 0
v -13 -11 0
v -14 -11 0
v -15 -11 0
v -16 -11 0
v -17 -11 0
v -18 -11 0
v -19 -11 0
v -20 -11 0
v -21 -11 0
v -22 -11 0
v -29 -11 0
v -30 -11 0
v -31 -11 0
v -32 -11 0
v -33 -11 0
v -35 -11 0
v -36 -11 0
v -37 -11 0
v -6 -12 0
v -7 -12 0
v -8 -12 0
v -9 -12 0
v -10 -12 0
v -11 -12 0
v -12 -12 0
v -13 -12 0
v -14 -12 0
v -15 -12 0
v -16 -12 0
v -28 -12 0
v -29 -12 0
v -28 -11 0
v -32 -12 0
v -33 -12 0
v -34 -12 0
v -34 -11 0
v -35 -12 0
v -36 -12 0
v -37 -12 0
v -6 -13 0
v -7 -13 0
v -8 -13 0
v -9 -13 0
v -10 -13 0
v -11 -13 0
v -12 -13 0
v -13 -13 0
v -14 -13 0
v -15 -13 0
v -16 -13 0
v -28 -13 0
v -29 -13 0
v -6 -14 0
v -7 -14 0
v -8 -14 0
v -9 -14 0
v -10 -14 0
v -11 -14 0
v -12 -14 0
v -13 -14 0
v -14 -14 0
v -15 -14 0
v -16 -14 0
v -17 -14 0
v -17 -13 0
v -18 -14 0
v -18 -13 0
v -19 -14 0
v -19 -13 0
v -20 -14 0
v -20 -13 0
v -21 -14 0
v -21 -13 0
v -22 -14 0
v -22 -13 0
v -23 -14 0
v -23 -13 0
v -24 -14 0
v -24 -13 0
v -25 -14 0
v -25 -13 0
v -26 -14 0
v -26 -13 0
v -27 -14 0
v -27 -13 0
v -28 -14 0
v -29 -14 0
v -6 -8 0
v -34 -10 0
v -31 -7 0
v -32 -6 0
v -31 -6 0
v -33 -6 0
v -34 -6 0
v -35 -6 0
v -36 -6 0
v -37 -6 0
v -38 -7 0
v -38 -6 0
v -30 -7 0
v -38 -8 0
v -38 -9 0
v -38 -10 0
v -38 -11 0
v -17 -12 0
v -18 -12 0
v -19 -12 0
v -20 -12 0
v -21 -12 0
v -22 -12 0
v -30 -12 0
v -31 -12 0
v -38 -12 0
v -31 -13 0
v -32 -13 0
v -33 -13 0
v -34 -13 0
v -35 -13 0
v -36 -13 0
v -37 -13 0
v -38 -13 0
v -23 -7 0
v -24 -7 0
v -25 -7 0
v -26 -7 0
v -27 -7 0
v -23 -8 0
v -24 -8 0
v -25 -8 0
v -26 -8 0
v -27 -8 0
v -23 -9 0
v -24 -9 0
v -25 -9 0
v -26 -9 0
v -27 -9 0
v -28 -9 0
v -23 -10 0
v -24 -10 0
v -25 -10 0
v -26 -10 0
v -27 -10 0
v -28 -10 0
v -23 -11 0
v -24 -11 0
v -25 -11 0
v -26 -11 0
v -27 -11 0
v -23 -12 0
v -24 -12 0
v -25 -12 0
v -26 -12 0
v -27 -12 0

# Texture cooridinates (Count = 84)
vt 0.2548082 3.051758E-05
vt 0.509523 3.051758E-05
vt 0.509523 0.2499695
vt 0.2548082 0.2499695
vt 0.5095853 0.5000305
vt 0.7643001 0.5000305
vt 0.7643001 0.7499695
vt 0.5095853 0.7499695
vt 0.5095853 0.2500305
vt 0.7643001 0.2500305
vt 0.7643001 0.4999695
vt 0.5095853 0.4999695
vt 1.525879E-05 0.8889024
vt 0.1249847 0.8889024
vt 0.1249847 0.9999864
vt 1.525879E-05 0.9999864
vt 0.1250153 0.8889024
vt 0.2499847 0.8889024
vt 0.2499847 0.9999864
vt 0.1250153 0.9999864
vt 6.103516E-05 0.500061
vt 0.499939 0.500061
vt 0.499939 0.999939
vt 6.103516E-05 0.999939
vt 0.6250153 1.358986E-05
vt 0.7499847 1.358986E-05
vt 0.7499847 0.1110976
vt 0.6250153 0.1110976
vt 1.525879E-05 1.358986E-05
vt 0.1249847 1.358986E-05
vt 0.1249847 0.1110976
vt 1.525879E-05 0.1110976
vt 0.6250153 0.1111247
vt 0.7499847 0.1111247
vt 0.7499847 0.2222087
vt 0.6250153 0.2222087
vt 0.2500153 0.1111247
vt 0.3749847 0.1111247
vt 0.3749847 0.2222087
vt 0.2500153 0.2222087
vt 0.1250153 0.1111247
vt 0.2499847 0.1111247
vt 0.2499847 0.2222087
vt 0.1250153 0.2222087
vt 0.3750153 0.1111247
vt 0.4999847 0.1111247
vt 0.4999847 0.2222087
vt 0.3750153 0.2222087
vt 1.525879E-05 0.1111247
vt 0.1249847 0.1111247
vt 0.1249847 0.2222087
vt 1.525879E-05 0.2222087
vt 0.1250153 1.358986E-05
vt 0.2499847 1.358986E-05
vt 0.2499847 0.1110976
vt 0.1250153 0.1110976
vt 0.2500153 1.358986E-05
vt 0.3749847 1.358986E-05
vt 0.3749847 0.1110976
vt 0.2500153 0.1110976
vt 0.3750153 1.358986E-05
vt 0.4999847 1.358986E-05
vt 0.4999847 0.1110976
vt 0.3750153 0.1110976
vt 0.5000153 0.1111247
vt 0.6249847 0.1111247
vt 0.6249847 0.2222087
vt 0.5000153 0.2222087
vt 0.5000153 1.358986E-05
vt 0.6249847 1.358986E-05
vt 0.6249847 0.1110976
vt 0.5000153 0.1110976
vt 1.525879E-05 0.7777913
vt 0.1249847 0.7777913
vt 0.1249847 0.8888753
vt 1.525879E-05 0.8888753
vt 0.1250153 0.7777913
vt 0.2499847 0.7777913
vt 0.2499847 0.8888753
vt 0.1250153 0.8888753
vt 0.2548082 0.7500305
vt 0.509523 0.7500305
vt 0.509523 0.9999695
vt 0.2548082 0.9999695

# Normal
vn 0 0 -1

# Groups (Count = 2)

g mesh_0001
f 1/1/1 2/2/1 3/3/1 4/4/1
f 2/1/1 5/2/1 6/3/1 3/4/1
f 5/1/1 7/2/1 8/3/1 6/4/1
f 7/1/1 9/2/1 10/3/1 8/4/1
f 9/1/1 11/2/1 12/3/1 10/4/1
f 11/1/1 13/2/1 14/3/1 12/4/1
f 13/1/1 15/2/1 16/3/1 14/4/1
f 15/1/1 17/2/1 18/3/1 16/4/1
f 17/1/1 19/2/1 20/3/1 18/4/1
f 19/1/1 21/2/1 22/3/1 20/4/1
f 21/1/1 23/2/1 24/3/1 22/4/1
f 23/1/1 25/2/1 26/3/1 24/4/1
f 25/1/1 27/2/1 28/3/1 26/4/1
f 27/1/1 29/2/1 30/3/1 28/4/1
f 29/1/1 31/2/1 32/3/1 30/4/1
f 31/1/1 33/2/1 34/3/1 32/4/1
f 33/1/1 35/2/1 36/3/1 34/4/1
f 35/1/1 37/2/1 38/3/1 36/4/1
f 37/1/1 39/2/1 40/3/1 38/4/1
f 41/1/1 42/2/1 2/3/1 1/4/1
f 42/5/1 43/6/1 5/7/1 2/8/1
f 43/5/1 44/6/1 7/7/1 5/8/1
f 44/5/1 45/6/1 9/7/1 7/8/1
f 45/5/1 46/6/1 11/7/1 9/8/1
f 46/5/1 47/6/1 13/7/1 11/8/1
f 47/1/1 48/2/1 15/3/1 13/4/1
f 48/1/1 49/2/1 17/3/1 15/4/1
f 49/1/1 50/2/1 19/3/1 17/4/1
f 50/1/1 51/2/1 21/3/1 19/4/1
f 51/1/1 52/2/1 23/3/1 21/4/1
f 52/1/1 53/2/1 25/3/1 23/4/1
f 54/1/1 55/2/1 39/3/1 37/4/1
f 56/1/1 57/2/1 42/3/1 41/4/1
f 57/5/1 58/6/1 43/7/1 42/8/1
f 58/5/1 59/6/1 44/7/1 43/8/1
f 59/5/1 60/6/1 45/7/1 44/8/1
f 60/5/1 61/6/1 46/7/1 45/8/1
f 61/5/1 62/6/1 47/7/1 46/8/1
f 62/1/1 63/2/1 48/3/1 47/4/1
f 63/1/1 64/2/1 49/3/1 48/4/1
f 64/1/1 65/2/1 50/3/1 49/4/1
f 65/1/1 66/2/1 51/3/1 50/4/1
f 66/1/1 67/2/1 52/3/1 51/4/1
f 67/1/1 68/2/1 53/3/1 52/4/1
f 69/1/1 70/2/1 55/3/1 54/4/1
f 71/9/1 72/10/1 73/11/1 74/12/1
f 72/9/1 75/10/1 76/11/1 73/12/1
f 75/9/1 77/10/1 78/11/1 76/12/1
f 77/9/1 79/10/1 80/11/1 78/12/1
f 79/9/1 81/10/1 82/11/1 80/12/1
f 83/1/1 84/2/1 85/3/1 86/4/1
f 84/1/1 87/2/1 88/3/1 85/4/1
f 87/1/1 89/2/1 56/3/1 88/4/1
f 89/1/1 90/2/1 57/3/1 56/4/1
f 90/5/1 91/6/1 58/7/1 57/8/1
f 91/5/1 92/6/1 59/7/1 58/8/1
f 92/5/1 93/6/1 60/7/1 59/8/1
f 93/5/1 94/6/1 61/7/1 60/8/1
f 94/5/1 95/6/1 62/7/1 61/8/1
f 95/9/1 96/10/1 63/11/1 62/12/1
f 96/9/1 97/10/1 64/11/1 63/12/1
f 97/9/1 98/10/1 65/11/1 64/12/1
f 98/9/1 99/10/1 66/11/1 65/12/1
f 99/9/1 100/10/1 67/11/1 66/12/1
f 100/9/1 101/10/1 68/11/1 67/12/1
f 102/9/1 103/10/1 104/11/1 70/12/1
f 103/9/1 105/10/1 106/11/1 104/12/1
f 105/9/1 107/10/1 71/11/1 106/12/1
f 107/9/1 108/10/1 72/11/1 71/12/1
f 108/9/1 109/10/1 75/11/1 72/12/1
f 109/9/1 110/10/1 77/11/1 75/12/1
f 110/9/1 111/10/1 79/11/1 77/12/1
f 111/9/1 112/10/1 81/11/1 79/12/1
f 113/1/1 114/2/1 83/3/1 115/4/1
f 114/5/1 116/6/1 84/7/1 83/8/1
f 116/5/1 117/6/1 87/7/1 84/8/1
f 117/5/1 118/6/1 89/7/1 87/8/1
f 118/5/1 119/6/1 90/7/1 89/8/1
f 119/5/1 120/6/1 91/7/1 90/8/1
f 120/5/1 121/6/1 92/7/1 91/8/1
f 121/5/1 122/6/1 93/7/1 92/8/1
f 122/5/1 123/6/1 94/7/1 93/8/1
f 123/5/1 124/6/1 95/7/1 94/8/1
f 124/9/1 125/10/1 96/11/1 95/12/1
f 125/9/1 126/10/1 97/11/1 96/12/1
f 126/9/1 127/10/1 98/11/1 97/12/1
f 127/9/1 128/10/1 99/11/1 98/12/1
f 128/9/1 129/10/1 100/11/1 99/12/1
f 129/9/1 130/10/1 101/11/1 100/12/1
f 131/9/1 132/10/1 103/11/1 102/12/1
f 132/9/1 133/10/1 105/11/1 103/12/1
f 133/9/1 134/10/1 107/11/1 105/12/1
f 134/9/1 135/10/1 108/11/1 107/12/1
f 136/9/1 137/10/1 111/11/1 110/12/1
f 137/9/1 138/10/1 112/11/1 111/12/1
f 139/1/1 140/2/1 114/3/1 113/4/1
f 140/5/1 141/6/1 116/7/1 114/8/1
f 141/5/1 142/6/1 117/7/1 116/8/1
f 142/5/1 143/6/1 118/7/1 117/8/1
f 143/5/1 144/6/1 119/7/1 118/8/1
f 144/5/1 145/6/1 120/7/1 119/8/1
f 145/5/1 146/6/1 121/7/1 120/8/1
f 146/5/1 147/6/1 122/7/1 121/8/1
f 147/5/1 148/6/1 123/7/1 122/8/1
f 148/5/1 149/6/1 124/7/1 123/8/1
f 149/9/1 150/10/1 125/11/1 124/12/1
f 150/9/1 151/10/1 126/11/1 125/12/1
f 151/9/1 152/10/1 127/11/1 126/12/1
f 152/9/1 153/10/1 128/11/1 127/12/1
f 153/9/1 154/10/1 129/11/1 128/12/1
f 154/9/1 155/10/1 130/11/1 129/12/1
f 156/9/1 157/10/1 132/11/1 131/12/1
f 157/9/1 158/10/1 133/11/1 132/12/1
f 158/9/1 159/10/1 134/11/1 133/12/1
f 159/9/1 160/10/1 135/11/1 134/12/1
f 161/9/1 162/10/1 137/11/1 136/12/1
f 162/9/1 163/10/1 138/11/1 137/12/1
f 164/1/1 165/2/1 140/3/1 139/4/1
f 165/5/1 166/6/1 141/7/1 140/8/1
f 166/5/1 167/6/1 142/7/1 141/8/1
f 167/1/1 168/2/1 143/3/1 142/4/1
f 168/1/1 169/2/1 144/3/1 143/4/1
f 169/5/1 170/6/1 145/7/1 144/8/1
f 170/5/1 171/6/1 146/7/1 145/8/1
f 171/5/1 172/6/1 147/7/1 146/8/1
f 172/5/1 173/6/1 148/7/1 147/8/1
f 173/5/1 174/6/1 149/7/1 148/8/1
f 175/1/1 176/2/1 156/3/1 177/4/1
f 178/9/1 179/10/1 160/11/1 159/12/1
f 179/9/1 180/10/1 181/11/1 160/12/1
f 180/9/1 182/10/1 161/11/1 181/12/1
f 182/9/1 183/10/1 162/11/1 161/12/1
f 183/9/1 184/10/1 163/11/1 162/12/1
f 185/1/1 186/2/1 165/3/1 164/4/1
f 186/5/1 187/6/1 166/7/1 165/8/1
f 187/5/1 188/6/1 167/7/1 166/8/1
f 188/1/1 189/2/1 168/3/1 167/4/1
f 189/5/1 190/6/1 169/7/1 168/8/1
f 190/5/1 191/6/1 170/7/1 169/8/1
f 191/5/1 192/6/1 171/7/1 170/8/1
f 192/5/1 193/6/1 172/7/1 171/8/1
f 193/5/1 194/6/1 173/7/1 172/8/1
f 194/5/1 195/6/1 174/7/1 173/8/1
f 196/1/1 197/2/1 176/3/1 175/4/1
f 198/1/1 199/2/1 186/3/1 185/4/1
f 199/5/1 200/6/1 187/7/1 186/8/1
f 200/5/1 201/6/1 188/7/1 187/8/1
f 201/1/1 202/2/1 189/3/1 188/4/1
f 203/1/1 204/2/1 191/3/1 190/4/1
f 204/1/1 205/2/1 192/3/1 191/4/1
f 205/1/1 206/2/1 193/3/1 192/4/1
f 206/1/1 207/2/1 194/3/1 193/4/1
f 207/1/1 208/2/1 195/3/1 194/4/1
f 208/1/1 209/2/1 210/3/1 195/4/1
f 209/1/1 211/2/1 212/3/1 210/4/1
f 211/1/1 213/2/1 214/3/1 212/4/1
f 213/1/1 215/2/1 216/3/1 214/4/1
f 215/1/1 217/2/1 218/3/1 216/4/1
f 217/1/1 219/2/1 220/3/1 218/4/1
f 219/1/1 221/2/1 222/3/1 220/4/1
f 221/1/1 223/2/1 224/3/1 222/4/1
f 223/1/1 225/2/1 226/3/1 224/4/1
f 225/1/1 227/2/1 228/3/1 226/4/1
f 227/1/1 229/2/1 230/3/1 228/4/1
f 229/1/1 231/2/1 196/3/1 230/4/1
f 231/1/1 232/2/1 197/3/1 196/4/1

g mesh_0002
f 115/13/1 83/14/1 86/15/1 233/16/1
f 202/17/1 203/18/1 190/19/1 189/20/1

g mesh_0003
f 135/21/1 234/22/1 109/23/1 108/24/1
f 234/21/1 136/22/1 110/23/1 109/24/1
f 160/21/1 181/22/1 234/23/1 135/24/1
f 181/21/1 161/22/1 136/23/1 234/24/1

g mesh_0004
f 1/13/1 2/14/1 3/15/1 4/16/1
f 2/25/1 5/26/1 6/27/1 3/28/1
f 5/29/1 7/30/1 8/31/1 6/32/1
f 7/25/1 9/26/1 10/27/1 8/28/1
f 9/29/1 11/30/1 12/31/1 10/32/1
f 11/25/1 13/26/1 14/27/1 12/28/1
f 13/29/1 15/30/1 16/31/1 14/32/1
f 15/25/1 17/26/1 18/27/1 16/28/1
f 17/29/1 19/30/1 20/31/1 18/32/1
f 19/25/1 21/26/1 22/27/1 20/28/1
f 21/29/1 23/30/1 24/31/1 22/32/1
f 23/25/1 25/26/1 26/27/1 24/28/1
f 25/29/1 27/30/1 28/31/1 26/32/1
f 27/25/1 29/26/1 30/27/1 28/28/1
f 29/29/1 31/30/1 32/31/1 30/32/1
f 31/25/1 33/26/1 34/27/1 32/28/1
f 33/29/1 35/30/1 36/31/1 34/32/1
f 35/25/1 37/26/1 38/27/1 36/28/1
f 37/17/1 39/18/1 40/19/1 38/20/1
f 41/33/1 42/34/1 2/35/1 1/36/1
f 47/37/1 48/38/1 15/39/1 13/40/1
f 48/41/1 49/42/1 17/43/1 15/44/1
f 49/41/1 50/42/1 19/43/1 17/44/1
f 50/41/1 51/42/1 21/43/1 19/44/1
f 51/41/1 52/42/1 23/43/1 21/44/1
f 52/45/1 53/46/1 25/47/1 23/48/1
f 54/49/1 55/50/1 39/51/1 37/52/1
f 235/13/1 74/14/1 236/15/1 237/16/1
f 74/25/1 73/26/1 238/27/1 236/28/1
f 73/29/1 76/30/1 239/31/1 238/32/1
f 76/25/1 78/26/1 240/27/1 239/28/1
f 78/29/1 80/30/1 241/31/1 240/32/1
f 80/25/1 82/26/1 242/27/1 241/28/1
f 82/17/1 243/18/1 244/19/1 242/20/1
f 56/53/1 57/54/1 42/55/1 41/56/1
f 62/57/1 63/58/1 48/59/1 47/60/1
f 63/29/1 64/30/1 49/31/1 48/32/1
f 64/29/1 65/30/1 50/31/1 49/32/1
f 65/29/1 66/30/1 51/31/1 50/32/1
f 66/29/1 67/30/1 52/31/1 51/32/1
f 67/61/1 68/62/1 53/63/1 52/64/1
f 69/57/1 70/58/1 55/59/1 54/60/1
f 70/25/1 104/26/1 245/27/1 55/28/1
f 104/29/1 106/30/1 235/31/1 245/32/1
f 106/61/1 71/62/1 74/63/1 235/64/1
f 81/65/1 246/66/1 243/67/1 82/68/1
f 115/13/1 83/14/1 86/15/1 233/16/1
f 83/25/1 84/26/1 85/27/1 86/28/1
f 84/25/1 87/26/1 88/27/1 85/28/1
f 87/25/1 89/26/1 56/27/1 88/28/1
f 89/61/1 90/62/1 57/63/1 56/64/1
f 112/49/1 247/50/1 246/51/1 81/52/1
f 113/33/1 114/34/1 83/35/1 115/36/1
f 138/65/1 248/66/1 247/67/1 112/68/1
f 139/53/1 140/54/1 114/55/1 113/56/1
f 163/49/1 249/50/1 248/51/1 138/52/1
f 164/33/1 165/34/1 140/35/1 139/36/1
f 167/37/1 168/38/1 143/39/1 142/40/1
f 168/45/1 169/46/1 144/47/1 143/48/1
f 174/37/1 250/38/1 150/39/1 149/40/1
f 250/41/1 251/42/1 151/43/1 150/44/1
f 251/41/1 252/42/1 152/43/1 151/44/1
f 252/41/1 253/42/1 153/43/1 152/44/1
f 253/41/1 254/42/1 154/43/1 153/44/1
f 254/45/1 255/46/1 155/47/1 154/48/1
f 175/37/1 176/38/1 156/39/1 177/40/1
f 176/69/1 256/70/1 157/71/1 156/72/1
f 256/41/1 257/42/1 158/43/1 157/44/1
f 257/45/1 178/46/1 159/47/1 158/48/1
f 184/65/1 258/66/1 249/67/1 163/68/1
f 185/53/1 186/54/1 165/55/1 164/56/1
f 188/49/1 189/50/1 168/51/1 167/52/1
f 189/33/1 190/34/1 169/35/1 168/36/1
f 195/57/1 210/58/1 250/59/1 174/60/1
f 210/29/1 212/30/1 251/31/1 250/32/1
f 212/29/1 214/30/1 252/31/1 251/32/1
f 214/29/1 216/30/1 253/31/1 252/32/1
f 216/29/1 218/30/1 254/31/1 253/32/1
f 218/61/1 220/62/1 255/63/1 254/64/1
f 196/49/1 197/50/1 176/51/1 175/52/1
f 259/73/1 260/74/1 178/75/1 257/76/1
f 260/69/1 261/70/1 179/71/1 178/72/1
f 261/41/1 262/42/1 180/43/1 179/44/1
f 262/69/1 263/70/1 182/71/1 180/72/1
f 263/41/1 264/42/1 183/43/1 182/44/1
f 264/69/1 265/70/1 184/71/1 183/72/1
f 265/77/1 266/78/1 258/79/1 184/80/1
f 198/33/1 199/34/1 186/35/1 185/36/1
f 201/65/1 202/66/1 189/67/1 188/68/1
f 202/73/1 203/74/1 190/75/1 189/76/1
f 203/69/1 204/70/1 191/71/1 190/72/1
f 204/41/1 205/42/1 192/43/1 191/44/1
f 205/69/1 206/70/1 193/71/1 192/72/1
f 206/41/1 207/42/1 194/43/1 193/44/1
f 207/69/1 208/70/1 195/71/1 194/72/1
f 208/41/1 209/42/1 210/43/1 195/44/1
f 209/69/1 211/70/1 212/71/1 210/72/1
f 211/41/1 213/42/1 214/43/1 212/44/1
f 213/69/1 215/70/1 216/71/1 214/72/1
f 215/41/1 217/42/1 218/43/1 216/44/1
f 217/69/1 219/70/1 220/71/1 218/72/1
f 219/41/1 221/42/1 222/43/1 220/44/1
f 221/69/1 223/70/1 224/71/1 222/72/1
f 223/41/1 225/42/1 226/43/1 224/44/1
f 225/69/1 227/70/1 228/71/1 226/72/1
f 227/41/1 229/42/1 230/43/1 228/44/1
f 229/69/1 231/70/1 196/71/1 230/72/1
f 231/77/1 232/78/1 197/79/1 196/80/1

g mesh_0005
f 53/5/1 267/6/1 27/7/1 25/8/1
f 267/5/1 268/6/1 29/7/1 27/8/1
f 268/5/1 269/6/1 31/7/1 29/8/1
f 269/5/1 270/6/1 33/7/1 31/8/1
f 270/5/1 271/6/1 35/7/1 33/8/1
f 271/5/1 54/6/1 37/7/1 35/8/1
f 68/5/1 272/6/1 267/7/1 53/8/1
f 272/5/1 273/6/1 268/7/1 267/8/1
f 273/5/1 274/6/1 269/7/1 268/8/1
f 274/5/1 275/6/1 270/7/1 269/8/1
f 275/5/1 276/6/1 271/7/1 270/8/1
f 276/5/1 69/6/1 54/7/1 271/8/1
f 95/81/1 96/82/1 63/83/1 62/84/1
f 96/81/1 97/82/1 64/83/1 63/84/1
f 97/81/1 98/82/1 65/83/1 64/84/1
f 98/81/1 99/82/1 66/83/1 65/84/1
f 99/81/1 100/82/1 67/83/1 66/84/1
f 100/81/1 101/82/1 68/83/1 67/84/1
f 101/5/1 277/6/1 272/7/1 68/8/1
f 277/5/1 278/6/1 273/7/1 272/8/1
f 278/5/1 279/6/1 274/7/1 273/8/1
f 279/5/1 280/6/1 275/7/1 274/8/1
f 280/5/1 281/6/1 276/7/1 275/8/1
f 281/5/1 282/6/1 69/7/1 276/8/1
f 124/81/1 125/82/1 96/83/1 95/84/1
f 125/81/1 126/82/1 97/83/1 96/84/1
f 126/81/1 127/82/1 98/83/1 97/84/1
f 127/81/1 128/82/1 99/83/1 98/84/1
f 128/81/1 129/82/1 100/83/1 99/84/1
f 129/81/1 130/82/1 101/83/1 100/84/1
f 130/5/1 283/6/1 277/7/1 101/8/1
f 283/5/1 284/6/1 278/7/1 277/8/1
f 284/5/1 285/6/1 279/7/1 278/8/1
f 285/5/1 286/6/1 280/7/1 279/8/1
f 286/5/1 287/6/1 281/7/1 280/8/1
f 287/5/1 288/6/1 282/7/1 281/8/1
f 149/81/1 150/82/1 125/83/1 124/84/1
f 150/81/1 151/82/1 126/83/1 125/84/1
f 151/81/1 152/82/1 127/83/1 126/84/1
f 152/81/1 153/82/1 128/83/1 127/84/1
f 153/81/1 154/82/1 129/83/1 128/84/1
f 154/81/1 155/82/1 130/83/1 129/84/1
f 155/5/1 289/6/1 283/7/1 130/8/1
f 289/5/1 290/6/1 284/7/1 283/8/1
f 290/5/1 291/6/1 285/7/1 284/8/1
f 291/5/1 292/6/1 286/7/1 285/8/1
f 292/5/1 293/6/1 287/7/1 286/8/1
f 293/5/1 177/6/1 288/7/1 287/8/1
f 255/5/1 294/6/1 289/7/1 155/8/1
f 294/5/1 295/6/1 290/7/1 289/8/1
f 295/5/1 296/6/1 291/7/1 290/8/1
f 296/5/1 297/6/1 292/7/1 291/8/1
f 297/5/1 298/6/1 293/7/1 292/8/1
f 298/5/1 175/6/1 177/7/1 293/8/1
f 194/5/1 195/6/1 174/7/1 173/8/1
f 220/5/1 222/6/1 294/7/1 255/8/1
f 222/5/1 224/6/1 295/7/1 294/8/1
f 224/5/1 226/6/1 296/7/1 295/8/1
f 226/5/1 228/6/1 297/7/1 296/8/1
f 228/5/1 230/6/1 298/7/1 297/8/1
f 230/5/1 196/6/1 175/7/1 298/8/1

